<?xml version="1.0" encoding="UTF-8"?>
<svg xmlns="http://www.w3.org/2000/svg" xmlns:xlink="http://www.w3.org/1999/xlink" width="100px" height="100px" viewBox="0 0 100 100" version="1.1">
<g id="surface1">
<path style=" stroke:none;fill-rule:nonzero;fill:rgb(0%,0%,0%);fill-opacity:1;" d="M 49.839844 0.421875 C 42.128906 0.96875 35.414062 4.9375 31.042969 11.519531 C 29.082031 14.472656 27.78125 18.167969 27.371094 21.988281 C 27.191406 23.597656 27.28125 27.359375 27.53125 28.808594 C 27.988281 31.445312 28.890625 34.203125 30.050781 36.460938 L 30.769531 37.863281 L 26.1875 37.863281 C 21.226562 37.863281 20.730469 37.996094 19.742188 38.515625 C 17.496094 39.695312 16.753906 40.914062 16.59375 42.597656 L 16.558594 62.351562 C 16.539062 79.585938 16.558594 82.21875 16.707031 82.9375 C 17.222656 85.445312 19.125 87.398438 21.53125 87.875 C 22.308594 88.035156 23.039062 88.058594 25.777344 88.023438 L 29.070312 87.992188 L 29.425781 88.914062 L 29.765625 89.828125 L 29.765625 100.023438 L 67.175781 100.023438 L 67.199219 98.175781 L 67.234375 96.316406 L 68.351562 96.234375 C 69.46875 96.15625 70.484375 95.929688 71.078125 95.621094 C 71.328125 95.496094 72.125 95.449219 74.667969 95.414062 C 76.484375 95.390625 78.285156 95.3125 78.695312 95.242188 C 80.484375 94.925781 85.320312 93.464844 86.566406 92.871094 C 87.226562 92.550781 87.636719 92.246094 88.402344 91.480469 C 89.234375 90.636719 89.472656 90.316406 89.90625 89.417969 C 90.671875 87.808594 90.839844 86.964844 90.832031 84.855469 C 90.832031 83.3125 90.785156 82.9375 90.523438 81.945312 C 89.804688 79.277344 88.296875 77.121094 86.109375 75.648438 C 84.351562 74.464844 81.773438 74.085938 79.289062 74.65625 C 78.136719 74.921875 72.890625 76.722656 72.183594 77.109375 C 72.011719 77.203125 71.875 77.15625 71.53125 76.871094 C 70.835938 76.3125 69.980469 76.070312 68.679688 76.070312 L 67.550781 76.070312 L 67.484375 72.160156 C 67.402344 68.019531 67.3125 66.59375 66.9375 63.753906 C 66.265625 58.484375 65.125 54.460938 62.796875 49.066406 L 62.398438 48.128906 L 63.332031 47.660156 C 65.511719 46.566406 67.972656 44.707031 69.820312 42.792969 C 73.527344 38.914062 75.605469 34.535156 76.425781 28.855469 C 76.640625 27.359375 76.621094 23.242188 76.378906 21.667969 C 75.957031 18.898438 75.238281 16.582031 74.03125 14.085938 C 70.128906 6.089844 62.875 1.140625 54.046875 0.457031 C 52.714844 0.355469 50.980469 0.34375 49.839844 0.421875 Z M 53.363281 1.140625 C 62.191406 1.824219 69.445312 6.773438 73.347656 14.769531 C 76.117188 20.484375 76.632812 26.550781 74.828125 32.402344 C 73.644531 36.246094 71.875 39.257812 69.09375 42.140625 C 67.199219 44.113281 64.519531 46.097656 62.453125 47.058594 C 61.507812 47.492188 61.484375 47.515625 61.472656 47.902344 C 61.472656 48.140625 61.691406 48.792969 62 49.5 C 64.371094 54.882812 65.566406 59.089844 66.253906 64.4375 C 66.617188 67.234375 66.71875 68.726562 66.800781 72.867188 L 66.867188 76.734375 L 68.191406 76.777344 C 69.652344 76.835938 70.242188 77.019531 70.960938 77.65625 C 71.429688 78.066406 72.046875 78.125 72.742188 77.828125 C 74.234375 77.191406 78.808594 75.605469 79.777344 75.375 C 81.464844 75 82.777344 75.089844 84.214844 75.695312 C 87.511719 77.074219 90.101562 81.078125 90.144531 84.855469 C 90.15625 86.222656 89.894531 87.304688 89.222656 88.730469 C 88.789062 89.632812 88.550781 89.953125 87.714844 90.796875 C 86.953125 91.558594 86.542969 91.867188 85.878906 92.1875 C 84.613281 92.792969 79.777344 94.242188 77.953125 94.570312 C 77.453125 94.652344 75.980469 94.707031 73.960938 94.71875 C 71.234375 94.71875 70.722656 94.753906 70.425781 94.914062 C 69.820312 95.234375 68.820312 95.472656 67.667969 95.550781 L 66.546875 95.632812 L 66.515625 97.605469 L 66.492188 99.566406 L 64.097656 99.566406 L 64.097656 95.6875 L 50.957031 95.65625 C 38.742188 95.632812 37.761719 95.609375 37.125 95.425781 C 36.0625 95.105469 34.453125 94.285156 33.667969 93.648438 C 33.28125 93.328125 32.949219 93.066406 32.925781 93.066406 C 32.914062 93.066406 32.914062 94.527344 32.9375 96.316406 L 32.972656 99.566406 L 30.453125 99.566406 L 30.453125 89.152344 L 30.074219 88.140625 L 29.710938 87.125 L 29.082031 87.179688 C 28.742188 87.214844 27.269531 87.285156 25.820312 87.316406 C 23.597656 87.375 23.027344 87.363281 22.230469 87.191406 C 19.8125 86.714844 17.90625 84.761719 17.394531 82.253906 C 17.246094 81.535156 17.222656 78.980469 17.246094 62.351562 L 17.277344 43.28125 L 17.542969 42.609375 C 18.292969 40.636719 19.800781 39.222656 21.679688 38.71875 C 22.171875 38.582031 23.300781 38.550781 27.0625 38.550781 L 31.820312 38.550781 L 31.820312 38.140625 C 31.820312 37.863281 31.683594 37.5 31.433594 37.078125 C 29.960938 34.648438 28.730469 31.203125 28.226562 28.125 C 27.347656 22.878906 28.695312 16.765625 31.730469 12.203125 C 35.753906 6.136719 41.824219 2.246094 48.699219 1.324219 C 50.902344 1.015625 51.503906 0.992188 53.363281 1.140625 Z M 53.363281 1.140625 "/>
<path style=" stroke:none;fill-rule:nonzero;fill:rgb(0%,0%,0%);fill-opacity:1;" d="M 49.566406 3.773438 C 43.5 4.3125 37.570312 7.882812 34.078125 13.105469 C 31.878906 16.402344 30.75 19.914062 30.601562 23.949219 C 30.40625 29.277344 32.003906 34.167969 35.277344 38.230469 L 36.074219 39.222656 L 37.796875 39.792969 C 39.90625 40.488281 46.441406 42.609375 52.453125 44.535156 C 56.832031 45.953125 56.96875 45.984375 57.753906 45.941406 C 59.285156 45.835938 61.917969 44.765625 63.835938 43.488281 C 64.691406 42.90625 65.410156 42.324219 65.339844 42.265625 C 65.316406 42.257812 64.964844 42.117188 64.554688 41.972656 C 63.265625 41.527344 61.335938 40.523438 60.230469 39.722656 C 54.777344 35.824219 52.222656 29.734375 53.488281 23.621094 C 54.675781 17.847656 59.339844 12.96875 65.578125 10.972656 C 66.171875 10.777344 66.855469 10.59375 67.097656 10.550781 C 67.324219 10.503906 67.519531 10.425781 67.519531 10.367188 C 67.519531 10.183594 65.007812 8.019531 64.015625 7.34375 C 59.921875 4.585938 54.789062 3.320312 49.566406 3.773438 Z M 49.566406 3.773438 "/>
<path style=" stroke:none;fill-rule:nonzero;fill:rgb(0%,0%,0%);fill-opacity:1;" d="M 68.394531 13.070312 C 62.042969 14.4375 57.242188 18.851562 56.113281 24.382812 C 55.292969 28.410156 56.523438 32.378906 59.582031 35.5625 C 61.371094 37.429688 63.753906 38.890625 66.390625 39.746094 L 67.6875 40.167969 L 68.167969 39.609375 C 70.65625 36.78125 72.308594 33.222656 73.003906 29.253906 C 73.3125 27.476562 73.367188 24.179688 73.117188 22.523438 C 72.808594 20.414062 72.195312 18.238281 71.375 16.367188 C 70.710938 14.859375 69.570312 12.886719 69.355469 12.898438 C 69.25 12.898438 68.820312 12.980469 68.394531 13.070312 Z M 68.394531 13.070312 "/>
<path style=" stroke:none;fill-rule:nonzero;fill:rgb(0%,0%,0%);fill-opacity:1;" d="M 21.5 41.445312 C 21.179688 41.582031 20.757812 41.890625 20.550781 42.128906 C 19.789062 43.007812 19.84375 41.355469 19.867188 62.945312 L 19.902344 82.515625 L 20.210938 83.027344 C 20.609375 83.714844 21.03125 84.101562 21.726562 84.421875 C 22.261719 84.660156 22.46875 84.683594 24.863281 84.71875 C 26.277344 84.738281 27.75 84.730469 28.136719 84.683594 L 28.832031 84.613281 L 28.5 83.335938 C 27.359375 79.046875 24.476562 67.382812 24.132812 65.75 C 23.597656 63.082031 23.449219 61.734375 23.527344 59.761719 C 23.644531 56.605469 24.488281 54.070312 26.367188 51.242188 C 27.269531 49.898438 29.527344 47.523438 30.703125 46.703125 L 31.363281 46.246094 L 31.363281 41.171875 L 26.722656 41.171875 C 22.089844 41.171875 22.070312 41.171875 21.5 41.445312 Z M 21.5 41.445312 "/>
<path style=" stroke:none;fill-rule:nonzero;fill:rgb(0%,0%,0%);fill-opacity:1;" d="M 34.101562 43.429688 L 34.101562 45.460938 L 35.105469 45.597656 C 38.457031 46.054688 43.40625 47.707031 48.757812 50.183594 C 52.78125 52.042969 54.402344 52.632812 56.910156 53.195312 C 58.210938 53.480469 60.859375 53.808594 60.972656 53.695312 C 61.039062 53.617188 60.527344 52.210938 59.707031 50.261719 L 59.03125 48.699219 L 57.972656 48.699219 C 56.148438 48.699219 55.667969 48.5625 46.53125 45.5625 C 39.140625 43.132812 36.152344 42.128906 35.160156 41.730469 C 34.707031 41.546875 34.273438 41.402344 34.214844 41.402344 C 34.148438 41.402344 34.101562 42.1875 34.101562 43.429688 Z M 34.101562 43.429688 "/>
<path style=" stroke:none;fill-rule:nonzero;fill:rgb(0%,0%,0%);fill-opacity:1;" d="M 32.058594 49.167969 C 27.886719 52.507812 25.785156 57.105469 26.230469 61.871094 C 26.300781 62.558594 26.484375 63.789062 26.640625 64.597656 C 26.894531 65.886719 28.054688 70.722656 28.742188 73.277344 C 29.6875 76.824219 30.554688 80.257812 31.179688 82.914062 C 31.96875 86.222656 32.503906 87.992188 33.039062 88.984375 C 33.210938 89.3125 33.816406 90.054688 34.386719 90.613281 C 35.207031 91.445312 35.605469 91.742188 36.382812 92.128906 C 38.117188 92.996094 37.261719 92.953125 50.375 92.953125 L 62.136719 92.953125 L 62.273438 92.347656 C 62.75 90.113281 62.785156 89.722656 62.785156 86.507812 C 62.773438 83.121094 62.671875 82.140625 62.113281 80.179688 L 61.871094 79.324219 L 54.835938 79.265625 L 47.808594 79.207031 L 47.515625 78.933594 C 47.355469 78.785156 47.171875 78.5 47.113281 78.308594 C 47.011719 77.976562 46.257812 74.144531 44.652344 65.695312 C 44.296875 63.847656 43.886719 61.691406 43.726562 60.914062 C 43.375 59.066406 43.375 58.621094 43.738281 58.1875 C 44.082031 57.777344 44.570312 57.640625 45.085938 57.824219 C 45.917969 58.085938 45.871094 57.9375 47.160156 64.679688 C 47.808594 68.089844 48.585938 72.148438 48.894531 73.699219 L 49.429688 76.527344 L 64.210938 76.527344 L 64.210938 74.714844 L 59.910156 74.679688 L 55.601562 74.644531 L 54.949219 74.328125 C 54.574219 74.144531 54.082031 73.769531 53.785156 73.4375 C 52.910156 72.457031 52.910156 72.433594 52.941406 66.9375 C 52.976562 62.570312 53 62.066406 53.183594 61.734375 C 53.535156 61.085938 54.09375 60.539062 54.6875 60.265625 C 55.246094 60.003906 55.316406 59.992188 59.054688 59.992188 C 62.292969 59.992188 62.84375 59.96875 62.84375 59.820312 C 62.84375 59.613281 62.429688 57.871094 62.203125 57.070312 L 62.03125 56.488281 L 60.414062 56.421875 C 56.457031 56.25 53.375 55.347656 47.617188 52.691406 C 42.4375 50.296875 38.902344 49.085938 35.320312 48.472656 C 33.269531 48.128906 33.371094 48.105469 32.058594 49.167969 Z M 32.058594 49.167969 "/>
<path style=" stroke:none;fill-rule:nonzero;fill:rgb(0%,0%,0%);fill-opacity:1;" d="M 55.875 62.921875 C 55.75 63.070312 55.703125 63.9375 55.679688 67.199219 L 55.644531 71.292969 L 55.988281 71.625 L 56.320312 71.964844 L 64.246094 71.964844 L 64.164062 70.277344 C 64.050781 67.847656 63.707031 64.324219 63.457031 63.035156 L 63.390625 62.726562 L 59.707031 62.726562 C 56.421875 62.726562 56.011719 62.75 55.875 62.921875 Z M 55.875 62.921875 "/>
<path style=" stroke:none;fill-rule:nonzero;fill:rgb(0%,0%,0%);fill-opacity:1;" d="M 80.578125 77.738281 C 79.378906 78.046875 73.324219 80.15625 73.152344 80.328125 C 73.128906 80.347656 73.199219 80.769531 73.300781 81.273438 C 73.472656 82.046875 73.507812 82.742188 73.496094 86.109375 C 73.484375 89.597656 73.460938 90.15625 73.265625 91.046875 C 73.140625 91.59375 73.0625 92.074219 73.09375 92.085938 C 73.3125 92.210938 76.847656 92.128906 77.78125 91.992188 C 79.492188 91.71875 84.5 90.214844 85.378906 89.703125 C 86.757812 88.890625 87.589844 87.136719 87.589844 85.046875 C 87.589844 82.082031 85.984375 79.265625 83.667969 78.171875 C 82.902344 77.804688 82.664062 77.75 81.796875 77.714844 C 81.25 77.691406 80.703125 77.703125 80.578125 77.738281 Z M 80.578125 77.738281 "/>
<path style=" stroke:none;fill-rule:nonzero;fill:rgb(0%,0%,0%);fill-opacity:1;" d="M 64.839844 79.574219 C 65.054688 80.441406 65.351562 82.34375 65.476562 83.632812 C 65.738281 86.417969 65.441406 91.457031 64.941406 92.757812 C 64.871094 92.941406 65.019531 92.953125 66.878906 92.953125 C 69.273438 92.953125 69.558594 92.859375 70.050781 91.960938 C 70.667969 90.820312 70.769531 89.964844 70.769531 85.824219 C 70.769531 81.898438 70.710938 81.320312 70.242188 80.382812 C 70.128906 80.15625 69.84375 79.824219 69.605469 79.640625 L 69.195312 79.324219 L 66.972656 79.289062 L 64.757812 79.253906 Z M 64.839844 79.574219 "/>
<path style="fill-rule:nonzero;fill:rgb(91.37255%,88.235295%,0%);fill-opacity:1;stroke-width:4.71416;stroke-linecap:round;stroke-linejoin:round;stroke:rgb(63.921571%,63.137257%,2.352941%);stroke-opacity:1;stroke-miterlimit:4;" d="M 357.022 1102.667333 L 357.022 1042.250333 L 348.345333 1018.869 L 306.286333 1019.417 C 267.926333 1019.873667 263.405333 1019.645333 254.591667 1016.859667 C 241.165667 1012.612667 232.9 1007.406667 223.264333 997.223 C 213.994 987.404667 206.596 973.065333 204.221333 960.324333 C 203.216667 954.707333 202.805667 874.288333 203.079667 727.287333 L 203.445 502.835667 L 204.175667 491.601667 C 205.363 472.330333 233.311 454.885667 249.796667 453.378667 L 256.692333 452.785 L 316.515667 451.323667 L 372.64 452.054333 L 372.64 446.894 C 372.64 443.606 368.986667 434.701 362.639 422.371 C 339.349 377.115333 328.434667 335.239 328.389 290.759667 C 328.389 263.131333 330.078667 249.477 336.837333 223.173 C 354.464667 154.901333 399.126667 94.667 461.187667 55.667667 C 508.635333 25.847333 571.198667 9.727 622.528 14.111 C 718.428 22.285333 795.239333 69.550333 844.285333 150.471667 C 860.314333 176.958333 874.151333 212.258667 880.955667 243.997 C 885.705 266.373667 886.938 312.268667 883.330333 336.517667 C 876.526 382.823667 857.62 428.399 829.672 465.571667 C 805.103333 498.314667 761.309 534.848 728.474667 549.963667 C 723.999333 552.018667 719.569667 555.078333 718.702 556.722333 C 716.829667 560.193 719.204333 567.408333 734.137333 603.850333 C 756.285667 657.965333 768.844 708.335667 775.694 770.990333 C 777.794667 789.942 780.991333 859.766333 781.082667 888.079667 L 781.128333 897.578333 L 796.335333 898.446 C 812.41 899.313667 819.853667 901.551333 828.439 908.081667 C 836.567667 914.338 843.052333 913.470333 873.557667 902.099333 C 932.193667 880.270667 950.962667 876.297667 970.919 881.458 C 999.780333 888.856 1024.623 910.821667 1039.921333 942.468667 C 1049.237333 961.74 1052.388333 974.435333 1052.388333 992.519333 C 1052.388333 1018.366667 1043.848667 1040.195333 1026.586667 1058.507667 C 1020.741333 1064.672667 1012.978 1071.522667 1009.279 1073.669 C 1000.191333 1079.012 977.540667 1086.958 944.843333 1096.274 C 913.79 1105.133333 899.039667 1106.868667 855.291 1106.914333 C 831.179 1106.96 827.936667 1107.325333 817.479 1110.933 C 810.903 1113.170667 800.536667 1115.271333 793.184333 1115.819333 C 786.106 1116.321667 779.438667 1117.463333 778.388333 1118.285333 C 776.972667 1119.381333 776.424667 1126.003 776.424667 1141.438333 L 776.424667 1163.084333 L 749.938 1163.084333 L 749.938 1118.239667 L 595.173667 1117.463333 C 479.956667 1116.869667 438.856667 1116.184667 434.198667 1114.769 C 424.7 1111.846333 403.967333 1101.160333 395.245 1094.675667 C 390.952333 1091.479 386.477 1088.236667 385.244 1087.551667 C 383.417333 1086.455667 383.280333 1092.027 384.239333 1124.678667 L 385.381 1163.084333 L 357.022 1163.084333 Z M 730.529667 1071.477 C 733.132667 1058.370667 733.543667 1049.739667 733.452333 1008.731 C 733.361 961.237667 733.361 961.192 728.794333 944.021333 L 724.227667 926.896333 L 642.119 926.12 C 565.536 925.389333 559.827667 925.161 556.905 922.512333 C 551.242333 917.352 553.434333 927.307333 519.915 753.043333 C 507.859 690.297333 507.448 686.096 512.928 680.707333 C 518.499333 675.273 525.851667 674.725 531.468667 679.383 C 536.081 683.219 538.227333 692.580667 558.046667 796.015667 C 567.591 845.701 575.765333 888.262333 576.267667 890.637 L 577.135333 894.929667 L 751.490667 894.929667 L 751.490667 873.512 L 700.435333 872.370333 C 654.768667 871.32 648.740667 870.863333 643.580333 868.260333 C 634.538333 863.648 626.546667 855.839 622.984667 848.167 C 619.879333 841.408333 619.742333 838.988 620.107667 783.868333 C 620.473 721.168 620.244667 722.766333 630.154333 712.674 C 639.653 702.992667 641.708 702.627333 689.886333 701.942333 C 713.907 701.577 734.091667 700.846333 734.731 700.252667 C 735.370333 699.613333 733.726333 690.297333 731.123333 679.565667 L 726.374 659.929 L 708.153 658.878667 C 658.467667 655.956 631.341667 648.055667 555.626333 614.490667 C 488.450667 584.716 454.155 573.025333 413.511667 566.129667 C 387.299 561.7 385.837667 562.293667 359.625 587.684333 C 315.693667 630.291333 299.162333 678.743667 308.021667 738.841 C 311.035667 758.98 317.748667 788.480667 332.270667 845.016 C 338.344333 868.625667 350.491667 916.667 359.351 951.830333 C 368.164667 986.993667 377.617667 1021.609 380.403333 1028.733 C 390.632667 1055.174 419.859333 1080.975667 444.245333 1085.131333 C 448.172667 1085.770667 513.521667 1086.41 589.465333 1086.501333 L 727.515667 1086.684 Z M 813.871333 1082.802333 C 820.036333 1077.185333 824.831333 1065.403333 826.521 1051.475 C 828.758667 1033.345333 827.48 953.885333 824.831333 945.619667 C 823.735333 942.194667 819.853667 936.395 816.200333 932.741667 L 809.578667 926.12 L 782.726667 926.12 C 760.441333 926.12 755.966 926.485333 756.651 928.266333 C 757.107667 929.453667 759.117 939.454667 761.126333 950.506 C 764.323 968.224667 764.734 975.211667 764.642667 1011.105667 C 764.551333 1049.42 762.450667 1074.262667 758.477667 1084.081 C 757.381667 1086.775333 758.706 1086.866667 783.868333 1086.41 C 807.843333 1085.953333 810.766 1085.633667 813.871333 1082.802333 Z M 914.931667 1074.947667 C 929.453667 1072.207667 964.206 1062.343667 984.573333 1055.128333 C 996.538 1050.927 999.917333 1048.917667 1007.315333 1041.565333 C 1018.732 1030.194333 1022.887667 1019.691 1023.938 999.186667 C 1026.495333 950.917 996.035667 910.045333 955.803333 907.716333 C 943.747333 907.031333 942.834 907.259667 905.981 919.726667 C 885.339667 926.713667 865.246333 933.837667 861.273333 935.527333 C 854.651667 938.358667 854.103667 938.998 855.017 942.879667 C 855.519333 945.254333 856.798 958.817333 857.802667 973.065333 C 859.492333 997.588333 858.031 1049.009 854.971333 1070.700667 L 854.058 1077.368 L 878.215667 1077.368 C 893.377 1077.368 907.077 1076.454667 914.931667 1074.947667 Z M 337.294 990.007667 C 337.659333 989.596667 332.088 966.443667 324.918333 938.587 C 303.455 855.382333 282.539667 767.611 278.977667 746.010667 C 274.730667 720.163333 275.415667 683.538667 280.530333 662.851667 C 290.714 621.98 319.621 578.505333 355.195333 550.466 L 367.936333 540.465 L 367.936333 480.185 L 317.474667 480.185 C 289.709333 480.185 263.268333 480.915667 258.656 481.783333 C 250.025 483.427333 242.170333 488.542 236.416333 496.259667 C 233.630667 499.958667 233.174 504.068667 231.986667 535.122 C 231.256 554.210667 231.119 659.198333 231.712667 768.387333 L 232.717333 966.946 L 237.603667 974.161333 C 243.723 983.340333 253.541333 988.911667 265.825667 990.281667 C 276.146333 991.377667 336.198 991.195 337.294 990.007667 Z M 751.490667 834.512667 C 751.490667 817.524667 745.051667 746.284667 742.631333 736.283667 L 741.809333 732.767333 L 698.7 732.813 C 674.314 732.813 654.586 733.452333 653.261667 734.32 C 651.298 735.553 650.841333 743.362 650.384667 785.101333 L 649.882333 834.421333 L 656.915 841.910667 L 751.490667 841.910667 Z M 713.222 624.811333 C 711.578 619.24 699.248 587.912667 694.864 578.048667 L 690.845333 569.098 L 681.620667 569.098 C 666.733333 569.098 648.192667 565.125 616.637 555.215333 C 571.198667 540.921667 446.163333 499.547667 422.051333 490.779667 C 410.178 486.532667 399.994333 483.473 399.446333 484.066667 C 398.852667 484.660333 398.350333 495.757333 398.350333 508.681 L 398.350333 532.245 L 411.639333 534.163 C 450.593 539.825667 504.023 558.001 573.756 589.374 C 591.337667 597.274333 611.979 606.133667 619.605333 609.056333 C 645.955 619.148667 684.954333 627.779667 706.006667 628.190667 C 713.907 628.327667 714.226667 628.145 713.222 624.811333 Z M 696.919 533.204 C 720.072 525.669 763.866333 500.643667 763.957667 494.935333 C 763.957667 494.022 758.158 491.008 751.079667 488.222333 C 735.233333 482.011667 713.267667 469.955667 700.800667 460.685333 C 686.004667 449.588333 664.815333 427.622667 654.586 412.689667 C 603.348 337.887667 614.079667 244.864667 681.483667 180.155 C 706.143667 156.499667 735.872667 138.963667 767.885 129.191 C 794.280333 121.153667 793.093 123.026 779.758333 110.513333 C 761.491667 93.342667 742.814 80.145 722.629333 70.144 C 690.525667 54.252 663.034333 46.717 624.674333 43.383333 C 499.365 32.469 383.919667 119.875 360.721 243.312 C 356.382667 266.373667 356.748 316.333 361.406 339.440333 C 369.397667 379.307333 385.152667 413.100667 411.730667 447.487667 L 420.818333 459.224 L 450.136333 468.814 C 495.574667 483.701333 627.049 526.125667 647.051 532.336333 C 662.440667 537.177 666.505 537.862 675.866667 537.222667 C 681.894667 536.857333 691.347667 535.030667 696.919 533.204 Z M 813.962667 442.373 C 832.868667 415.018667 848.989 374.695 854.560333 340.673333 C 855.793333 333.184 856.615333 315.419667 856.615333 296.239667 C 856.569667 259.843333 854.377667 246.052 843.417667 213.172 C 837.252667 194.631333 821.634667 161.979667 815.013 153.805333 L 811.405333 149.375667 L 795.011 153.303 C 756.24 162.664667 724.684333 179.744 699.156667 205.271667 C 659.426667 244.956 644.082667 297.746667 657.143333 349.441333 C 660.888 364.191667 673.720333 389.445333 684.132333 402.460333 C 707.742 432.098 736.603333 451.871667 776.150667 465.526 L 791.266333 470.732 L 797.888 463.379667 C 801.541333 459.361 808.756667 449.908 813.962667 442.373 Z M 813.962667 442.373 " transform="matrix(0.0855383,0,0,0.0855383,0,0)"/>
</g>
</svg>
