<?xml version="1.0" encoding="UTF-8" standalone="no"?>
<svg
   width="110px"
   height="110px"
   viewBox="0 0 110 110"
   version="1.1"
   id="svg10"
   sodipodi:docname="vocabug_logo - Copy.svg"
   inkscape:version="1.4 (86a8ad7, 2024-10-11)"
   xmlns:inkscape="http://www.inkscape.org/namespaces/inkscape"
   xmlns:sodipodi="http://sodipodi.sourceforge.net/DTD/sodipodi-0.dtd"
   xmlns="http://www.w3.org/2000/svg"
   xmlns:svg="http://www.w3.org/2000/svg">
  <defs
     id="defs10" />
  <sodipodi:namedview
     id="namedview10"
     pagecolor="#ffffff"
     bordercolor="#000000"
     borderopacity="0.25"
     inkscape:showpageshadow="2"
     inkscape:pageopacity="0.0"
     inkscape:pagecheckerboard="0"
     inkscape:deskcolor="#d1d1d1"
     inkscape:zoom="4"
     inkscape:cx="30.375"
     inkscape:cy="48.875"
     inkscape:window-width="1920"
     inkscape:window-height="1084"
     inkscape:window-x="-5"
     inkscape:window-y="-5"
     inkscape:window-maximized="1"
     inkscape:current-layer="svg10"
     showguides="true" />
  <g
     id="surface1">
    <path
       style="fill:#000000;fill-opacity:1;fill-rule:nonzero;stroke:#ff7a23;stroke-width:20;stroke-linecap:butt;stroke-linejoin:miter;stroke-miterlimit:4;stroke-opacity:1"
       d="m 362.99715,1975 c -72.01704,-30.9659 -98.01136,-144.0341 -47.01704,-203.9773 74.00568,-87.9972 213.99147,-47.017 213.99147,62.0028 v 40.9802 l 46.02273,-44.0341 c 57.03125,-55.9659 118.03977,-175.9944 137.99716,-271.9461 33.02556,-162.0028 30.04261,-185.0142 -13.99148,-100 -59.01989,112.0029 -153.97727,171.9461 -272.01704,171.9461 -131.96023,0 -226.98864,-89.9858 -227.98295,-212.9972 0,-56.9602 8.02556,-75.9943 208.02556,-496.946 C 700.99431,302.98295 737.00283,232.03125 792.96874,172.01704 859.01987,101.98863 905.9659,80.965908 990.9801,79.97159 c 50,0 76.9886,6.036931 117.0455,25.99432 103.9772,51.06534 105.9659,55.04261 453.9772,784.01987 221.0227,461.00852 221.0227,462.99712 222.0171,531.03692 1.9886,204.9716 -280.0426,284.9432 -436.0086,123.0114 -21.0227,-21.0228 -50,-62.0029 -64.9858,-91.0512 -16.0511,-28.9772 -31.0369,-52.9829 -35.0142,-52.9829 -19.034,0 35.0142,227.9829 73.0114,304.9716 28.9773,60.0142 114.5869,154.6616 134.2187,166.2642 -0.4089,-14.5622 -0.6208,-15.7112 -1.2641,-30.2557 -5.5747,-59.9836 51.9886,-120.9517 118.0397,-120.9517 67.9688,0 132.9546,74.0057 124.0057,142.9687 -17.0455,145.0284 -192.0454,171.0228 -328.054,49.0057 -125.9943,-113.9915 -191.9744,-290.9801 -204.9716,-547.017 -2.9829,-69.9574 -11.0085,-130.9659 -18.963,-147.0171 -34.0199,-65.9801 -132.0313,-187.9971 -152.05968,-187.9971 -15.98012,0 -97.94034,96.0227 -136.00852,158.0255 -32.95455,56.037 -33.94887,60.0142 -38.99148,197.0171 -5.96591,161.0085 -32.95455,270.9517 -94.95738,387.9971 C 635.01419,1939.9858 480.9659,2025.9943 362.99715,1975 Z m 78.97728,-91.9745 c 15.625,-16.1221 18.82102,-41.4062 -1.98864,-58.0255 -36.22159,-24.1478 -82.95454,12.9971 -53.97727,52.9829 17.96875,25.9943 43.75,19.6733 55.96591,5.0426 z m 1152.05967,0.9944 c 23.9346,-23.0114 19.9574,-53.054 -9.0199,-66.0512 -30.0426,-12.9971 -55.0426,3.054 -55.0426,36.0085 0,42.0455 46.0937,48.7927 64.0625,30.0427 z M 517.96874,1513.9915 c 29.0483,-13.9915 52.05966,-28.9773 52.05966,-34.0199 0,-3.9773 -18.03977,-9.9432 -41.05113,-13.9915 -55.96591,-8.9489 -126.98864,-46.946 -170.95171,-90.9801 l -37.00284,-37.9972 -11.00852,26.9887 c -25.99432,68.0397 0,134.0198 63.99148,162.0028 47.01704,20.0284 87.00284,16.9744 143.96306,-12.0028 z m 1118.03976,0 c 27.983,-18.9631 53.9773,-62.9972 53.9773,-92.9688 0,-16.0511 -15.9801,-63.9915 -26.9887,-80.0426 -0.9943,-1.9886 -13.9914,11.0085 -28.9772,28.054 -36.0086,42.9687 -99.0057,77.9829 -168.0398,93.963 -55.9659,12.0029 -56.9602,12.9972 -37.0028,31.037 50.9943,45.9517 151.9886,55.9659 207.0312,19.9574 z M 655.9659,1349.0057 c 18.03977,-36.0086 18.03977,-38.9915 -3.97727,-38.9915 -48.01137,0 -116.97443,-36.0085 -175.99432,-89.9858 l -62.00284,-58.0256 -22.01704,38.9915 c -20.95171,35.0142 -20.95171,40.9801 -7.95455,66.9744 33.94886,66.0512 98.01136,108.0256 186.00852,121.0228 50,8.0255 63.99148,0.9943 85.9375,-39.9858 z m 834.0199,18.963 c 50.9943,-21.946 86.0085,-50.9943 106.0369,-89.9858 18.9631,-36.0085 17.9688,-47.017 -6.0369,-86.0085 l -20.9517,-33.9488 -38.0682,43.963 c -44.9574,50.9943 -119.9574,94.0341 -178.9773,103.9773 -23.0113,4.0483 -41.9744,8.0256 -41.9744,10.0142 0,3.054 12.0028,22.017 25.9943,43.0398 24.0057,37.0028 26.9886,38.9914 66.9744,33.9488 23.0114,-2.9829 62.0029,-13.9914 87.0029,-25 z M 737.99715,1202.9829 c 11.00852,-15.9801 28.97727,-47.017 39.98579,-68.963 12.00284,-23.0114 62.99716,-85.0142 113.99148,-138.99151 75.99432,-79.04829 97.01704,-96.02272 112.99718,-91.05113 33.0255,12.00284 175,178.05394 217.0454,255.04264 40.9801,74.0057 45.9517,76.9886 106.9603,64.9858 41.0511,-9.0199 38.9914,-18.0398 -7.9546,-32.0313 -54.0483,-16.9744 -87.9971,-45.9517 -111.0085,-96.946 -25,-55.0426 -25,-86.0085 0,-134.01989 35.0142,-70.02841 112.0028,-109.01989 185.0142,-95.02841 18.9631,3.05398 34.9432,4.0483 34.9432,0.99432 0,-1.98864 -34.9432,-77.98295 -77.983,-167.96875 C 1309.0199,609.01988 1250,483.02556 1221.0227,420.0284 1125.9943,210.0142 1034.0199,141.97443 922.01703,199.00568 876.98862,222.01704 860.01419,239.98579 824.00567,304.97159 787.99715,370.0284 560.0142,850.99431 560.0142,862.00283 c 0,4.97159 14.98579,5.96591 34.01988,1.98863 63.99148,-11.00852 148.93466,34.01989 180.96591,97.01705 19.03409,36.00852 19.03409,101.98859 0.99432,137.99719 -21.02273,38.9914 -78.97727,87.9971 -114.9858,96.0227 -51.98863,10.9375 -34.01988,30.9659 30.96591,33.9489 19.03409,0.9943 33.02557,-6.9603 46.02273,-25.9944 z m -28.97727,-99.0056 c 74.00568,-62.0029 -3.05398,-169.95743 -87.99716,-124.00572 -30.04261,16.05113 -46.02273,65.05682 -32.03125,99.00572 23.01136,53.0539 74.00568,63.9914 120.02841,25 z m 674.00562,-0.9944 c 24.0057,-23.0113 21.9461,-80.9659 -5.0426,-110.01416 -26.9886,-28.97728 -79.9716,-30.96591 -107.9545,-2.98296 -22.0171,22.01702 -25.9943,70.02842 -9.0199,100.99432 21.0227,39.9858 83.0256,46.0227 122.017,12.0028 z"
       transform="matrix(0.055,0,0,-0.055,0,110)"
       id="path1"
       sodipodi:nodetypes="ccsccccscccccccccscccsccccsccccccccccsccscccccccsccccccsccccccccccccscccccccccccccsccccsccccccccccccscc" />
    <path
       style="fill:#ffffff;fill-opacity:1;fill-rule:nonzero;stroke:#ff0000;stroke-width:2.66667;stroke-linecap:butt;stroke-linejoin:miter;stroke-miterlimit:4;stroke-opacity:1"
       d="m 87.462121,137.41477 c -1.325757,-0.16098 -2.386363,-0.4356 -3.513257,-0.91856 -1.363637,-0.57765 -2.234849,-1.16477 -3.087122,-2.08333 -2.613636,-2.80303 -3.674242,-7.57576 -2.47159,-11.11742 0.236742,-0.70076 1.003787,-2.1591 1.515151,-2.88826 0.539773,-0.76705 1.846591,-2.08334 2.518939,-2.53788 1.827652,-1.25 3.958334,-1.71402 6.164773,-1.33523 1.960227,0.34091 4.100379,1.42045 5.984849,3.03977 1.988636,1.69508 3.497009,4.5676 3.721591,5.96591 0.198863,0.95644 0.198863,2.67993 0,3.6269 -0.293561,1.34469 -0.804925,2.57575 -1.57197,3.73106 -0.577652,0.87121 -1.912879,2.20644 -2.765152,2.78409 -1.202651,0.79545 -2.632575,1.38257 -3.910985,1.60985 -0.577651,0.10416 -2.140151,0.17992 -2.585227,0.1231 z"
       transform="scale(0.4125)"
       id="path2"
       sodipodi:nodetypes="cccccccccccccc" />
    <path
       style="fill-rule:nonzero;fill:rgb(100%,100%,100%);fill-opacity:1;stroke-width:2.666667;stroke-linecap:butt;stroke-linejoin:miter;stroke:rgb(100%,0%,0%);stroke-opacity:1;stroke-miterlimit:4;"
       d="M 173.4375 136.846591 C 169.270833 135.729167 166.893939 132.234848 166.893939 127.206439 C 166.893939 121.676136 169.507576 118.058712 174.261364 116.998106 C 178.560606 116.041667 183.929924 118.162879 185.539773 121.458333 C 186.25947 122.916667 186.609848 124.905303 186.486742 126.751894 C 186.126894 132.035985 183.409091 135.710227 179.015152 136.837121 C 177.613636 137.206439 174.763258 137.206439 173.4375 136.846591 Z M 173.4375 136.846591 "
       transform="matrix(0.4125,0,0,0.4125,0,0)"
       id="path3" />
    <path
       style="fill-rule:nonzero;fill:rgb(100%,48.627451%,14.117648%);fill-opacity:1;stroke-width:2.666667;stroke-linecap:butt;stroke-linejoin:miter;stroke:rgb(100%,0%,0%);stroke-opacity:1;stroke-miterlimit:4;"
       d="M 128.020833 241.922348 C 125.691288 241.306818 121.818182 239.507576 119.554924 237.982955 C 116.155303 235.681818 113.475379 232.253788 109.820076 225.539773 C 105.757576 218.058712 84.119318 172.755682 76.950758 156.695076 C 75.511364 153.494318 74.867424 151.761364 75.037879 151.581439 C 75.179924 151.439394 76.060606 151.373106 77.054924 151.439394 C 78.020833 151.505682 80.397727 151.55303 82.348485 151.543561 C 85.482955 151.534091 86.145833 151.448864 88.11553 150.804924 C 92.935606 149.232955 96.543561 146.969697 99.933712 143.390152 C 103.314394 139.829545 104.668561 136.86553 105.217803 131.827652 C 105.577652 128.560606 105.189394 124.450758 104.270833 121.799242 C 102.282197 116.051136 93.967803 108.693182 87.566288 107.026515 C 85.61553 106.515152 84.090909 105.691288 84.242424 105.236742 C 84.441288 104.668561 85.625 103.996212 87.159091 103.607955 C 89.36553 103.039773 93.020833 102.8125 94.308712 103.162879 C 96.534091 103.768939 98.42803 106.107955 102.017045 112.642045 C 104.517045 117.17803 105.037879 117.954545 108.342803 122.083333 C 112.708333 127.537879 117.414773 132.755682 123.125 138.475379 C 130.018939 145.378788 132.244318 146.931818 134.166667 146.193182 C 137.19697 145.047348 147.717803 133.674242 156.363636 122.206439 C 159.090909 118.579545 161.619318 114.734848 164.138258 110.378788 C 167.973485 103.712121 169.119318 102.755682 172.916667 103.001894 C 175.643939 103.181818 179.725379 104.138258 180.492424 104.791667 L 181.089015 105.284091 L 180.435606 105.814394 C 180.075758 106.098485 178.835227 106.647727 177.679924 107.026515 C 169.034091 109.867424 164.943182 113.087121 161.704545 119.621212 C 159.100379 124.857955 158.238636 129.081439 159.015152 132.736742 C 160.160985 138.13447 164.07197 144.024621 168.75947 147.414773 C 173.503788 150.852273 179.801136 152.282197 186.013258 151.354167 C 189.251894 150.861742 190.397727 150.823864 190.397727 151.183712 C 190.397727 151.55303 186.657197 159.621212 178.598485 176.628788 C 174.668561 184.924242 169.043561 196.903409 166.089015 203.248106 C 163.143939 209.592803 159.857955 216.467803 158.787879 218.522727 C 154.081439 227.585227 148.787879 234.668561 143.977273 238.314394 C 141.922348 239.876894 138.645833 241.515152 136.515152 242.054924 C 134.337121 242.613636 130.407197 242.547348 128.020833 241.922348 Z M 128.020833 241.922348 "
       transform="matrix(0.4125,0,0,0.4125,0,0)"
       id="path4" />
    <path
       style="fill-rule:nonzero;fill:rgb(100%,48.627451%,14.117648%);fill-opacity:1;stroke-width:2.666667;stroke-linecap:butt;stroke-linejoin:miter;stroke:rgb(100%,0%,0%);stroke-opacity:1;stroke-miterlimit:4;"
       d="M 206.448864 108.901515 C 201.136364 102.755682 197.102273 99.460227 191.003788 96.278409 C 187.007576 94.204545 183.986742 93.143939 179.69697 92.339015 C 176.287879 91.685606 174.876894 91.325758 174.876894 91.089015 C 174.876894 90.445076 180.170455 82.49053 181.107955 81.714015 C 182.083333 80.909091 183.11553 80.681818 185.123106 80.833333 C 189.943182 81.202652 196.704545 83.238636 201.55303 85.776515 C 205.407197 87.80303 208.712121 90.520833 210.899621 93.456439 C 211.496212 94.270833 212.5 95.965909 213.125 97.234848 C 214.176136 99.36553 214.261364 99.640152 214.337121 101.051136 C 214.403409 102.376894 214.356061 102.727273 213.901515 103.854167 C 213.295455 105.378788 209.460227 111.903409 209.157197 111.912879 C 209.100379 111.912879 207.878788 110.558712 206.448864 108.901515 Z M 206.448864 108.901515 "
       transform="matrix(0.4125,0,0,0.4125,0,0)"
       id="path5" />
    <path
       style="fill-rule:nonzero;fill:rgb(100%,48.627451%,14.117648%);fill-opacity:1;stroke-width:2.666667;stroke-linecap:butt;stroke-linejoin:miter;stroke:rgb(100%,0%,0%);stroke-opacity:1;stroke-miterlimit:4;"
       d="M 220.104167 86.373106 C 219.441288 85.681818 218.285985 84.422348 217.518939 83.560606 C 212.329545 77.755682 204.299242 73.503788 194.176136 71.212121 C 188.579545 69.943182 188.304924 69.715909 190.274621 67.888258 C 193.049242 65.331439 196.761364 63.513258 201.164773 62.575758 C 203.456439 62.092803 207.926136 61.903409 210.132576 62.19697 C 214.706439 62.80303 218.380682 64.554924 220.61553 67.1875 C 224.090909 71.268939 225.681818 75.454545 225.00947 78.721591 C 224.356061 81.922348 222.140152 87.623106 221.55303 87.623106 C 221.410985 87.623106 220.757576 87.054924 220.104167 86.373106 Z M 220.104167 86.373106 "
       transform="matrix(0.4125,0,0,0.4125,0,0)"
       id="path6" />
    <path
       style="fill-rule:nonzero;fill:rgb(100%,48.627451%,14.117648%);fill-opacity:1;stroke-width:2.666667;stroke-linecap:butt;stroke-linejoin:miter;stroke:rgb(100%,0%,0%);stroke-opacity:1;stroke-miterlimit:4;"
       d="M 55.018939 111.297348 C 54.971591 111.174242 53.986742 109.403409 52.82197 107.367424 C 50.426136 103.143939 50.028409 102.1875 50.123106 100.899621 C 50.284091 98.683712 53.125 93.967803 56.174242 90.880682 C 58.645833 88.380682 60.918561 86.761364 64.318182 85.094697 C 67.670455 83.44697 71.013258 82.386364 75.047348 81.704545 C 81.960227 80.520833 83.967803 81.155303 86.543561 85.359848 C 87.320076 86.619318 88.731061 89.545455 88.986742 90.378788 C 89.36553 91.666667 89.138258 91.808712 86.363636 91.979167 C 81.676136 92.282197 76.505682 94.337121 70.767045 98.181818 C 67.206439 100.568182 65.625 101.88447 59.734848 107.376894 C 57.291667 109.659091 55.255682 111.524621 55.198864 111.524621 C 55.142045 111.524621 55.066288 111.420455 55.018939 111.297348 Z M 55.018939 111.297348 "
       transform="matrix(0.4125,0,0,0.4125,0,0)"
       id="path7" />
    <path
       style="fill-rule:nonzero;fill:rgb(100%,48.627451%,14.117648%);fill-opacity:1;stroke-width:2.666667;stroke-linecap:butt;stroke-linejoin:miter;stroke:rgb(100%,0%,0%);stroke-opacity:1;stroke-miterlimit:4;"
       d="M 41.799242 85.378788 C 39.024621 78.096591 40.037879 71.742424 44.706439 67.073864 C 49.119318 62.651515 56.013258 60.767045 62.140152 62.310606 C 64.488636 62.897727 73.409091 67.17803 74.857955 68.409091 C 76.287879 69.630682 76.354167 69.602273 68.314394 71.543561 C 64.05303 72.575758 58.191288 75.208333 54.024621 77.954545 C 52.566288 78.920455 49.441288 81.590909 47.092803 83.882576 L 42.8125 88.049242 Z M 41.799242 85.378788 "
       transform="matrix(0.4125,0,0,0.4125,0,0)"
       id="path8" />
    <path
       style="fill:#ff7a23;fill-opacity:1;fill-rule:nonzero;stroke:#ff0000;stroke-width:2.66667;stroke-linecap:butt;stroke-linejoin:miter;stroke-miterlimit:4;stroke-opacity:1"
       d="m 208.84184,24.847533 c -2.37728,-0.03541 -4.76598,-1.90614 -4.80898,-5.141767 -0.002,-2.304385 1.34279,-5.425069 5.02544,-5.506768 2.54965,-0.259325 5.50609,2.474283 5.50609,5.779208 -0.16883,3.017697 -3.25881,4.784056 -5.72255,4.869327 z"
       transform="scale(0.4125)"
       id="path9"
       sodipodi:nodetypes="ccccc" />
    <path
       style="fill:#ff7a23;fill-opacity:1;fill-rule:nonzero;stroke:#ff0000;stroke-width:2.66667;stroke-linecap:butt;stroke-linejoin:miter;stroke-miterlimit:4;stroke-opacity:1"
       d="m 50.290359,19.671945 c 0.0369,-2.540222 2.253693,-5.757558 5.184914,-5.727956 2.677761,0.0084 5.086999,2.744807 5.104677,5.7657 0.01563,2.670684 -2.77135,4.676141 -5.167553,4.610118 -2.794726,0.02903 -5.049297,-2.018093 -5.122038,-4.647862 z"
       transform="scale(0.4125)"
       id="path10"
       sodipodi:nodetypes="ccscc" />
  </g>
  <path
     style="fill:#ef7700;fill-opacity:1;stroke:#e77308;stroke-width:0.0334066;stroke-linecap:round;stroke-linejoin:round;stroke-opacity:1;paint-order:stroke fill markers"
     d="m 36.056922,57.22942 c -0.129088,-0.01343 -0.452461,-0.06575 -0.612473,-0.09909 -0.741755,-0.15458 -1.524174,-0.499007 -2.033654,-0.89523 -0.89653,-0.697234 -1.561739,-1.925642 -1.760921,-3.251805 -0.06982,-0.464857 -0.07809,-0.99152 -0.0227,-1.445857 0.03163,-0.25946 0.100339,-0.568188 0.181148,-0.813946 0.09132,-0.277734 0.313213,-0.730182 0.551538,-1.124622 l 0.114666,-0.189779 0.720524,-0.0028 0.720524,-0.0028 -0.14356,0.151998 c -0.324835,0.343928 -0.425153,0.483671 -0.658925,0.917885 -0.197685,0.367184 -0.296892,0.623431 -0.359172,0.927721 -0.217939,1.064816 0.04342,2.328892 0.674385,3.261664 0.235702,0.348444 0.532812,0.650209 0.82351,0.836409 0.375018,0.24021 0.890515,0.449514 1.368693,0.555721 0.279058,0.06198 0.490809,0.08838 0.707872,0.08826 0.202409,-1.11e-4 0.440414,-0.01303 0.617953,-0.03355 0.321615,-0.03716 0.701666,-0.161073 1.088282,-0.354821 0.375476,-0.188164 0.557294,-0.318143 0.870752,-0.622484 0.405202,-0.393416 0.597252,-0.652289 0.807349,-1.088262 0.146558,-0.304125 0.261542,-0.650281 0.310779,-0.935597 0.04875,-0.282502 0.05151,-0.816841 0.0058,-1.119883 -0.06809,-0.451237 -0.305528,-1.005588 -0.61693,-1.440336 -0.262356,-0.366275 -0.652987,-0.755001 -1.065615,-1.06042 -0.05621,-0.0416 -0.102199,-0.07756 -0.102199,-0.0799 0,-0.0023 0.36916,-0.004 0.820354,-0.0036 l 0.820355,6.38e-4 0.102052,0.118134 c 0.502961,0.582219 0.839233,1.202359 1.030765,1.900898 0.09242,0.337071 0.119777,0.546498 0.128699,0.985289 0.01,0.492069 -0.018,0.795501 -0.105516,1.143131 -0.202505,0.804413 -0.56258,1.489949 -1.078318,2.052977 -0.341269,0.372562 -0.71384,0.699484 -1.002419,0.879599 -0.627462,0.391627 -1.335274,0.650697 -1.947884,0.712957 -0.310938,0.0316 -0.80018,0.04778 -0.955699,0.0316 z"
     id="path32" />
  <path
     style="fill:#ef7700;fill-opacity:1;stroke:#e77308;stroke-width:0.0334066;stroke-linecap:round;stroke-linejoin:round;stroke-opacity:1;paint-order:stroke fill markers"
     d="m 32.544401,49.315174 c 0.200193,-0.274387 0.617559,-0.711356 0.929498,-0.973155 0.466474,-0.391494 1.091313,-0.679748 1.743333,-0.804243 0.435177,-0.08309 0.978738,-0.08322 1.439793,-3.46e-4 1.017102,0.182827 2.129618,0.794038 3.018413,1.6583 l 0.185326,0.180211 -0.821926,0.0055 -0.821926,0.0055 -0.121534,-0.07936 c -0.571354,-0.373081 -1.117387,-0.6061 -1.637261,-0.698701 -0.283145,-0.05043 -0.678152,-0.05775 -0.942574,-0.01746 -0.412982,0.06293 -0.821806,0.221054 -1.165621,0.450843 -0.0916,0.06122 -0.191952,0.142875 -0.348371,0.283462 l -0.06111,0.05492 -0.724219,0.0031 -0.72422,0.0031 z"
     id="path33" />
  <path
     style="fill:#ef7700;fill-opacity:1;stroke:#e77308;stroke-width:0.0668132;stroke-linecap:round;stroke-linejoin:round;stroke-opacity:1;paint-order:stroke fill markers"
     d="m 72.29062,57.086238 c -0.696343,-0.03408 -1.142853,-0.147498 -1.721931,-0.437395 -0.413039,-0.206774 -0.719332,-0.434135 -1.052631,-0.781367 -0.503814,-0.524874 -0.846151,-1.164072 -1.038499,-1.939038 -0.115456,-0.465171 -0.145356,-0.708556 -0.158246,-1.288113 -0.01616,-0.726436 0.02503,-1.140095 0.173206,-1.739685 0.385788,-1.561064 1.446615,-2.65638 2.997142,-3.094582 0.541005,-0.152897 1.221738,-0.212043 1.784881,-0.155082 1.669069,0.168824 3.159681,1.045887 3.739098,2.200052 0.328565,0.654484 0.509164,1.643873 0.448791,2.458654 -0.13564,1.83057 -0.860064,3.221136 -2.111365,4.052863 -0.42015,0.27927 -1.034345,0.536553 -1.518116,0.63593 -0.388376,0.07978 -0.99736,0.114434 -1.54233,0.08776 z m 0.814765,-1.082278 c 0.389706,-0.02794 0.574015,-0.06216 0.872261,-0.161958 1.447069,-0.484219 2.418401,-1.834067 2.413507,-3.692877 -0.0018,-0.693544 0.03639,-1.188641 -0.356304,-1.844525 -0.594661,-0.993213 -1.544117,-1.42561 -2.781354,-1.571526 -0.313072,-0.03692 -0.936865,-0.01384 -1.209857,0.04478 -1.200765,0.257811 -2.030993,0.963421 -2.40558,2.0445 -0.173097,0.49957 -0.245179,0.97515 -0.246308,1.625085 -0.0011,0.627961 0.05877,1.047953 0.216607,1.519701 0.316352,0.945542 0.971664,1.60839 1.881394,1.903029 0.422364,0.136794 0.956626,0.181037 1.615634,0.133794 z"
     id="path34"
     sodipodi:nodetypes="ssssssssssssssssssscssssss" />
</svg>
