<?xml version="1.0" encoding="UTF-8" standalone="no"?>
<svg
   width="110px"
   height="110px"
   viewBox="0 0 110 110"
   version="1.1"
   id="svg10"
   sodipodi:docname="vocabug_logo.svg"
   inkscape:version="1.4 (86a8ad7, 2024-10-11)"
   xmlns:inkscape="http://www.inkscape.org/namespaces/inkscape"
   xmlns:sodipodi="http://sodipodi.sourceforge.net/DTD/sodipodi-0.dtd"
   xmlns="http://www.w3.org/2000/svg"
   xmlns:svg="http://www.w3.org/2000/svg">
  <defs
     id="defs10" />
  <sodipodi:namedview
     id="namedview10"
     pagecolor="#ffffff"
     bordercolor="#000000"
     borderopacity="0.25"
     inkscape:showpageshadow="2"
     inkscape:pageopacity="0.0"
     inkscape:pagecheckerboard="0"
     inkscape:deskcolor="#d1d1d1"
     inkscape:zoom="4"
     inkscape:cx="43.125"
     inkscape:cy="57"
     inkscape:window-width="1920"
     inkscape:window-height="1084"
     inkscape:window-x="-5"
     inkscape:window-y="-5"
     inkscape:window-maximized="1"
     inkscape:current-layer="svg10" />
  <g
     id="surface1">
    <path
       style="fill-rule:nonzero;fill:rgb(0%,0%,0%);fill-opacity:1;stroke-width:20;stroke-linecap:butt;stroke-linejoin:miter;stroke:rgb(100%,48.627451%,14.117648%);stroke-opacity:1;stroke-miterlimit:4;"
       d="M 362.997154 1974.999971 C 290.980109 1944.034062 264.985792 1830.965882 315.980109 1771.022701 C 389.98579 1683.025543 529.971583 1724.005656 529.971583 1833.025541 L 529.971583 1874.005654 L 575.99431 1829.971564 C 633.025559 1774.005655 694.034081 1653.977248 713.991467 1558.025545 C 747.017034 1396.022706 744.03408 1373.011343 699.99999 1458.025546 C 640.980104 1570.028386 546.022719 1629.971567 427.982948 1629.971567 C 296.022723 1629.971567 200.994315 1539.985773 199.999997 1416.974411 C 199.999997 1360.014184 208.025565 1340.980094 408.025562 920.028395 C 700.994308 302.98295 737.00283 232.031247 792.968738 172.017043 C 859.019874 101.988635 905.965896 80.965908 990.980099 79.97159 C 1040.980098 79.97159 1067.968734 86.008521 1108.025552 105.965908 C 1212.002823 157.031248 1213.991459 161.00852 1562.002818 889.985782 C 1783.025542 1350.994298 1783.025542 1352.982934 1784.01986 1421.022706 C 1786.008496 1625.994294 1503.97725 1705.965884 1348.011344 1544.034068 C 1326.988617 1523.011341 1298.011344 1482.031228 1283.025549 1452.982933 C 1266.974413 1424.005661 1251.988618 1399.999979 1248.011345 1399.999979 C 1228.977254 1399.999979 1283.025549 1627.98293 1321.022708 1704.971566 C 1349.99998 1764.985769 1451.278387 1889.062472 1453.835206 1871.235768 C 1454.545433 1866.406222 1457.031228 1857.031222 1453.977251 1840.980086 C 1441.97441 1785.014178 1505.965887 1720.028383 1572.017022 1720.028383 C 1639.985771 1720.028383 1704.971566 1794.034064 1696.022702 1862.997131 C 1678.977248 2008.025538 1503.97725 2034.019856 1367.96873 1912.002812 C 1241.974413 1798.011337 1175.994301 1621.022703 1162.997142 1364.985775 C 1160.014187 1295.02839 1151.988619 1234.019868 1144.034074 1217.968732 C 1110.014188 1151.988619 1012.002826 1029.971576 991.974417 1029.971576 C 975.994304 1029.971576 894.034078 1125.994301 855.965896 1187.997141 C 823.011351 1244.034072 822.017033 1248.011345 816.97442 1385.014184 C 811.008511 1546.022704 784.019875 1655.965884 722.017035 1773.011337 C 635.014195 1939.985767 480.965902 2025.994288 362.997154 1974.999971 Z M 441.974425 1883.02554 C 457.599425 1866.903381 460.795448 1841.619291 439.985789 1824.999973 C 403.764199 1800.852246 357.031245 1837.997132 386.008517 1877.982927 C 403.977267 1903.977244 429.758516 1897.656222 441.974425 1883.02554 Z M 1594.034067 1884.019858 C 1617.968726 1861.008495 1613.991453 1830.965882 1585.014181 1817.968723 C 1554.971568 1804.971564 1529.971568 1821.0227 1529.971568 1853.977245 C 1529.971568 1896.022699 1576.065317 1902.769858 1594.034067 1884.019858 Z M 517.968742 1513.991455 C 547.017037 1499.999978 570.028401 1485.014182 570.028401 1479.971569 C 570.028401 1475.994296 551.988628 1470.028387 528.977265 1465.980092 C 473.011357 1457.031228 401.98863 1419.03407 358.025563 1374.99998 L 321.022722 1337.002821 L 310.0142 1363.991457 C 284.019882 1432.031229 310.0142 1498.011341 374.005676 1525.994295 C 421.022721 1546.022704 461.008516 1542.968727 517.968742 1513.991455 Z M 1636.008498 1513.991455 C 1663.991452 1495.028387 1689.98577 1450.994297 1689.98577 1421.022706 C 1689.98577 1404.97157 1674.005657 1357.03123 1662.997134 1340.980094 C 1662.002816 1338.991457 1649.005657 1351.988616 1634.019862 1369.034071 C 1598.01134 1412.00282 1535.014182 1447.017024 1465.980092 1462.997137 C 1410.014184 1474.999978 1409.019865 1475.994296 1428.977251 1494.034069 C 1479.971569 1539.985773 1580.965886 1549.999977 1636.008498 1513.991455 Z M 655.965899 1349.005662 C 674.005672 1312.99714 674.005672 1310.014185 651.988627 1310.014185 C 603.977264 1310.014185 535.014197 1274.005663 475.994311 1220.028391 L 413.991471 1162.002824 L 391.974426 1200.9943 C 371.022722 1236.008504 371.022722 1241.974413 384.019881 1267.968731 C 417.968744 1334.019866 482.031243 1375.994298 570.028401 1388.991457 C 620.0284 1397.017025 634.019877 1389.985775 655.965899 1349.005662 Z M 1489.985773 1367.96873 C 1540.980091 1346.022707 1575.994295 1316.974412 1596.022703 1277.982936 C 1614.985771 1241.974413 1613.991453 1230.965891 1589.985772 1191.974414 L 1569.034068 1158.025551 L 1530.965886 1201.988618 C 1486.008501 1252.982936 1411.008502 1296.022708 1351.988616 1305.96589 C 1328.977253 1310.014185 1310.014185 1313.991458 1310.014185 1315.980094 C 1310.014185 1319.034071 1322.017026 1337.997139 1336.008503 1359.019866 C 1360.014184 1396.022706 1362.997139 1398.011343 1402.982934 1392.968729 C 1425.994297 1389.985775 1464.985774 1378.977252 1489.985773 1367.96873 Z M 737.997148 1202.982937 C 749.005671 1187.002823 766.97442 1155.965892 777.982943 1134.019869 C 789.985784 1111.008506 840.980101 1049.005666 891.974419 995.028394 C 967.968736 915.9801 988.991463 899.005668 1004.971576 903.977259 C 1037.997144 915.9801 1179.971573 1082.031234 1222.017027 1159.019869 C 1262.99714 1233.02555 1267.968731 1236.008504 1328.977253 1224.005664 C 1370.028389 1214.985777 1367.96873 1205.965891 1321.022708 1191.974414 C 1266.974413 1174.999982 1233.02555 1146.02271 1210.014187 1095.028393 C 1185.014187 1039.98578 1185.014187 1009.019871 1210.014187 961.008508 C 1245.028391 890.9801 1322.017026 851.988624 1395.028388 865.980101 C 1413.991456 869.034078 1429.97157 870.028396 1429.97157 866.974419 C 1429.97157 864.985783 1395.028388 788.991466 1351.988616 699.005671 C 1309.019867 609.019877 1249.999981 483.025561 1221.022709 420.028403 C 1125.994301 210.014201 1034.019871 141.97443 922.017032 199.005679 C 876.988623 222.017042 860.014192 239.985792 824.00567 304.971586 C 787.997147 370.028404 560.014196 850.994306 560.014196 862.002828 C 560.014196 866.974419 574.999991 867.968737 594.034082 863.991464 C 658.025558 852.982942 742.968739 898.01135 774.999988 961.008508 C 794.034079 997.017031 794.034079 1062.997143 775.994307 1099.005665 C 754.97158 1137.997142 697.017035 1187.002823 661.008513 1195.028391 C 609.019877 1205.965891 626.988627 1225.9943 691.974422 1228.977254 C 711.008512 1229.971573 724.999989 1222.017027 737.997148 1202.982937 Z M 709.019876 1103.977256 C 783.025557 1041.974416 705.965899 934.019872 621.022718 979.971576 C 590.980105 996.022712 574.999991 1045.028394 588.991468 1078.977257 C 612.002832 1132.031233 662.997149 1142.968733 709.019876 1103.977256 Z M 1383.025548 1102.982938 C 1407.031229 1079.971575 1404.97157 1022.01703 1377.982934 992.968735 C 1350.994298 963.991463 1298.011344 962.002827 1270.02839 989.985781 C 1248.011345 1012.002826 1244.034072 1060.014189 1261.008504 1090.980097 C 1282.031231 1130.965892 1344.034071 1137.002824 1383.025548 1102.982938 Z M 1383.025548 1102.982938 "
       transform="matrix(0.055,0,0,-0.055,0,110)"
       id="path1" />
    <path
       style="fill-rule:nonzero;fill:rgb(100%,100%,100%);fill-opacity:1;stroke-width:2.666667;stroke-linecap:butt;stroke-linejoin:miter;stroke:rgb(100%,0%,0%);stroke-opacity:1;stroke-miterlimit:4;"
       d="M 87.462121 137.414773 C 86.136364 137.253788 85.075758 136.979167 83.948864 136.496212 C 82.585227 135.918561 81.714015 135.331439 80.861742 134.412879 C 78.248106 131.609848 77.1875 126.837121 78.390152 123.295455 C 78.626894 122.594697 79.393939 121.136364 79.905303 120.407197 C 80.445076 119.640152 81.751894 118.323864 82.424242 117.869318 C 84.251894 116.619318 86.382576 116.155303 88.589015 116.534091 C 90.549242 116.875 92.689394 117.954545 94.573864 119.573864 C 96.5625 121.268939 97.80303 123.257576 98.295455 125.539773 C 98.494318 126.496212 98.494318 128.219697 98.295455 129.166667 C 98.001894 130.511364 97.49053 131.742424 96.723485 132.897727 C 96.145833 133.768939 94.810606 135.104167 93.958333 135.681818 C 92.755682 136.477273 91.325758 137.064394 90.047348 137.291667 C 89.469697 137.395833 87.907197 137.471591 87.462121 137.414773 Z M 87.462121 137.414773 "
       transform="matrix(0.4125,0,0,0.4125,0,0)"
       id="path2" />
    <path
       style="fill-rule:nonzero;fill:rgb(100%,100%,100%);fill-opacity:1;stroke-width:2.666667;stroke-linecap:butt;stroke-linejoin:miter;stroke:rgb(100%,0%,0%);stroke-opacity:1;stroke-miterlimit:4;"
       d="M 173.4375 136.846591 C 169.270833 135.729167 166.893939 132.234848 166.893939 127.206439 C 166.893939 121.676136 169.507576 118.058712 174.261364 116.998106 C 178.560606 116.041667 183.929924 118.162879 185.539773 121.458333 C 186.25947 122.916667 186.609848 124.905303 186.486742 126.751894 C 186.126894 132.035985 183.409091 135.710227 179.015152 136.837121 C 177.613636 137.206439 174.763258 137.206439 173.4375 136.846591 Z M 173.4375 136.846591 "
       transform="matrix(0.4125,0,0,0.4125,0,0)"
       id="path3" />
    <path
       style="fill-rule:nonzero;fill:rgb(100%,48.627451%,14.117648%);fill-opacity:1;stroke-width:2.666667;stroke-linecap:butt;stroke-linejoin:miter;stroke:rgb(100%,0%,0%);stroke-opacity:1;stroke-miterlimit:4;"
       d="M 128.020833 241.922348 C 125.691288 241.306818 121.818182 239.507576 119.554924 237.982955 C 116.155303 235.681818 113.475379 232.253788 109.820076 225.539773 C 105.757576 218.058712 84.119318 172.755682 76.950758 156.695076 C 75.511364 153.494318 74.867424 151.761364 75.037879 151.581439 C 75.179924 151.439394 76.060606 151.373106 77.054924 151.439394 C 78.020833 151.505682 80.397727 151.55303 82.348485 151.543561 C 85.482955 151.534091 86.145833 151.448864 88.11553 150.804924 C 92.935606 149.232955 96.543561 146.969697 99.933712 143.390152 C 103.314394 139.829545 104.668561 136.86553 105.217803 131.827652 C 105.577652 128.560606 105.189394 124.450758 104.270833 121.799242 C 102.282197 116.051136 93.967803 108.693182 87.566288 107.026515 C 85.61553 106.515152 84.090909 105.691288 84.242424 105.236742 C 84.441288 104.668561 85.625 103.996212 87.159091 103.607955 C 89.36553 103.039773 93.020833 102.8125 94.308712 103.162879 C 96.534091 103.768939 98.42803 106.107955 102.017045 112.642045 C 104.517045 117.17803 105.037879 117.954545 108.342803 122.083333 C 112.708333 127.537879 117.414773 132.755682 123.125 138.475379 C 130.018939 145.378788 132.244318 146.931818 134.166667 146.193182 C 137.19697 145.047348 147.717803 133.674242 156.363636 122.206439 C 159.090909 118.579545 161.619318 114.734848 164.138258 110.378788 C 167.973485 103.712121 169.119318 102.755682 172.916667 103.001894 C 175.643939 103.181818 179.725379 104.138258 180.492424 104.791667 L 181.089015 105.284091 L 180.435606 105.814394 C 180.075758 106.098485 178.835227 106.647727 177.679924 107.026515 C 169.034091 109.867424 164.943182 113.087121 161.704545 119.621212 C 159.100379 124.857955 158.238636 129.081439 159.015152 132.736742 C 160.160985 138.13447 164.07197 144.024621 168.75947 147.414773 C 173.503788 150.852273 179.801136 152.282197 186.013258 151.354167 C 189.251894 150.861742 190.397727 150.823864 190.397727 151.183712 C 190.397727 151.55303 186.657197 159.621212 178.598485 176.628788 C 174.668561 184.924242 169.043561 196.903409 166.089015 203.248106 C 163.143939 209.592803 159.857955 216.467803 158.787879 218.522727 C 154.081439 227.585227 148.787879 234.668561 143.977273 238.314394 C 141.922348 239.876894 138.645833 241.515152 136.515152 242.054924 C 134.337121 242.613636 130.407197 242.547348 128.020833 241.922348 Z M 128.020833 241.922348 "
       transform="matrix(0.4125,0,0,0.4125,0,0)"
       id="path4" />
    <path
       style="fill-rule:nonzero;fill:rgb(100%,48.627451%,14.117648%);fill-opacity:1;stroke-width:2.666667;stroke-linecap:butt;stroke-linejoin:miter;stroke:rgb(100%,0%,0%);stroke-opacity:1;stroke-miterlimit:4;"
       d="M 206.448864 108.901515 C 201.136364 102.755682 197.102273 99.460227 191.003788 96.278409 C 187.007576 94.204545 183.986742 93.143939 179.69697 92.339015 C 176.287879 91.685606 174.876894 91.325758 174.876894 91.089015 C 174.876894 90.445076 180.170455 82.49053 181.107955 81.714015 C 182.083333 80.909091 183.11553 80.681818 185.123106 80.833333 C 189.943182 81.202652 196.704545 83.238636 201.55303 85.776515 C 205.407197 87.80303 208.712121 90.520833 210.899621 93.456439 C 211.496212 94.270833 212.5 95.965909 213.125 97.234848 C 214.176136 99.36553 214.261364 99.640152 214.337121 101.051136 C 214.403409 102.376894 214.356061 102.727273 213.901515 103.854167 C 213.295455 105.378788 209.460227 111.903409 209.157197 111.912879 C 209.100379 111.912879 207.878788 110.558712 206.448864 108.901515 Z M 206.448864 108.901515 "
       transform="matrix(0.4125,0,0,0.4125,0,0)"
       id="path5" />
    <path
       style="fill-rule:nonzero;fill:rgb(100%,48.627451%,14.117648%);fill-opacity:1;stroke-width:2.666667;stroke-linecap:butt;stroke-linejoin:miter;stroke:rgb(100%,0%,0%);stroke-opacity:1;stroke-miterlimit:4;"
       d="M 220.104167 86.373106 C 219.441288 85.681818 218.285985 84.422348 217.518939 83.560606 C 212.329545 77.755682 204.299242 73.503788 194.176136 71.212121 C 188.579545 69.943182 188.304924 69.715909 190.274621 67.888258 C 193.049242 65.331439 196.761364 63.513258 201.164773 62.575758 C 203.456439 62.092803 207.926136 61.903409 210.132576 62.19697 C 214.706439 62.80303 218.380682 64.554924 220.61553 67.1875 C 224.090909 71.268939 225.681818 75.454545 225.00947 78.721591 C 224.356061 81.922348 222.140152 87.623106 221.55303 87.623106 C 221.410985 87.623106 220.757576 87.054924 220.104167 86.373106 Z M 220.104167 86.373106 "
       transform="matrix(0.4125,0,0,0.4125,0,0)"
       id="path6" />
    <path
       style="fill-rule:nonzero;fill:rgb(100%,48.627451%,14.117648%);fill-opacity:1;stroke-width:2.666667;stroke-linecap:butt;stroke-linejoin:miter;stroke:rgb(100%,0%,0%);stroke-opacity:1;stroke-miterlimit:4;"
       d="M 55.018939 111.297348 C 54.971591 111.174242 53.986742 109.403409 52.82197 107.367424 C 50.426136 103.143939 50.028409 102.1875 50.123106 100.899621 C 50.284091 98.683712 53.125 93.967803 56.174242 90.880682 C 58.645833 88.380682 60.918561 86.761364 64.318182 85.094697 C 67.670455 83.44697 71.013258 82.386364 75.047348 81.704545 C 81.960227 80.520833 83.967803 81.155303 86.543561 85.359848 C 87.320076 86.619318 88.731061 89.545455 88.986742 90.378788 C 89.36553 91.666667 89.138258 91.808712 86.363636 91.979167 C 81.676136 92.282197 76.505682 94.337121 70.767045 98.181818 C 67.206439 100.568182 65.625 101.88447 59.734848 107.376894 C 57.291667 109.659091 55.255682 111.524621 55.198864 111.524621 C 55.142045 111.524621 55.066288 111.420455 55.018939 111.297348 Z M 55.018939 111.297348 "
       transform="matrix(0.4125,0,0,0.4125,0,0)"
       id="path7" />
    <path
       style="fill-rule:nonzero;fill:rgb(100%,48.627451%,14.117648%);fill-opacity:1;stroke-width:2.666667;stroke-linecap:butt;stroke-linejoin:miter;stroke:rgb(100%,0%,0%);stroke-opacity:1;stroke-miterlimit:4;"
       d="M 41.799242 85.378788 C 39.024621 78.096591 40.037879 71.742424 44.706439 67.073864 C 49.119318 62.651515 56.013258 60.767045 62.140152 62.310606 C 64.488636 62.897727 73.409091 67.17803 74.857955 68.409091 C 76.287879 69.630682 76.354167 69.602273 68.314394 71.543561 C 64.05303 72.575758 58.191288 75.208333 54.024621 77.954545 C 52.566288 78.920455 49.441288 81.590909 47.092803 83.882576 L 42.8125 88.049242 Z M 41.799242 85.378788 "
       transform="matrix(0.4125,0,0,0.4125,0,0)"
       id="path8" />
    <path
       style="fill-rule:nonzero;fill:rgb(100%,48.627451%,14.117648%);fill-opacity:1;stroke-width:2.666667;stroke-linecap:butt;stroke-linejoin:miter;stroke:rgb(100%,0%,0%);stroke-opacity:1;stroke-miterlimit:4;"
       d="M 207.045455 24.469697 C 205.984848 24.0625 204.971591 22.992424 204.526515 21.799242 C 204.015152 20.445076 204.090909 18.001894 204.67803 16.875 C 206.24053 13.882576 210.61553 13.371212 212.8125 15.92803 C 214.535985 17.916667 214.962121 20.104167 213.958333 21.818182 C 213.333333 22.878788 212.537879 23.570076 211.24053 24.166667 C 209.981061 24.744318 208.11553 24.876894 207.045455 24.469697 Z M 207.045455 24.469697 "
       transform="matrix(0.4125,0,0,0.4125,0,0)"
       id="path9" />
    <path
       style="fill-rule:nonzero;fill:rgb(100%,48.627451%,14.117648%);fill-opacity:1;stroke-width:2.666667;stroke-linecap:butt;stroke-linejoin:miter;stroke:rgb(100%,0%,0%);stroke-opacity:1;stroke-miterlimit:4;"
       d="M 53.664773 23.986742 C 52.698864 23.655303 51.325758 22.49053 50.861742 21.600379 C 50.274621 20.473485 50.331439 18.589015 51.003788 17.253788 C 51.609848 16.032197 53.001894 14.668561 54.043561 14.270833 C 56.912879 13.181818 60.445076 16.051136 60.445076 19.469697 C 60.445076 21.297348 59.488636 22.8125 57.774621 23.693182 C 56.903409 24.138258 54.592803 24.308712 53.664773 23.986742 Z M 53.664773 23.986742 "
       transform="matrix(0.4125,0,0,0.4125,0,0)"
       id="path10" />
  </g>
  <path
     style="fill:#ef7700;fill-opacity:1;stroke:#e77308;stroke-width:0.0334066;stroke-linecap:round;stroke-linejoin:round;stroke-opacity:1;paint-order:stroke fill markers"
     d="m 36.056922,57.22942 c -0.129088,-0.01343 -0.452461,-0.06575 -0.612473,-0.09909 -0.741755,-0.15458 -1.524174,-0.499007 -2.033654,-0.89523 -0.89653,-0.697234 -1.561739,-1.925642 -1.760921,-3.251805 -0.06982,-0.464857 -0.07809,-0.99152 -0.0227,-1.445857 0.03163,-0.25946 0.100339,-0.568188 0.181148,-0.813946 0.09132,-0.277734 0.313213,-0.730182 0.551538,-1.124622 l 0.114666,-0.189779 0.720524,-0.0028 0.720524,-0.0028 -0.14356,0.151998 c -0.324835,0.343928 -0.425153,0.483671 -0.658925,0.917885 -0.197685,0.367184 -0.296892,0.623431 -0.359172,0.927721 -0.217939,1.064816 0.04342,2.328892 0.674385,3.261664 0.235702,0.348444 0.532812,0.650209 0.82351,0.836409 0.375018,0.24021 0.890515,0.449514 1.368693,0.555721 0.279058,0.06198 0.490809,0.08838 0.707872,0.08826 0.202409,-1.11e-4 0.440414,-0.01303 0.617953,-0.03355 0.321615,-0.03716 0.701666,-0.161073 1.088282,-0.354821 0.375476,-0.188164 0.557294,-0.318143 0.870752,-0.622484 0.405202,-0.393416 0.597252,-0.652289 0.807349,-1.088262 0.146558,-0.304125 0.261542,-0.650281 0.310779,-0.935597 0.04875,-0.282502 0.05151,-0.816841 0.0058,-1.119883 -0.06809,-0.451237 -0.305528,-1.005588 -0.61693,-1.440336 -0.262356,-0.366275 -0.652987,-0.755001 -1.065615,-1.06042 -0.05621,-0.0416 -0.102199,-0.07756 -0.102199,-0.0799 0,-0.0023 0.36916,-0.004 0.820354,-0.0036 l 0.820355,6.38e-4 0.102052,0.118134 c 0.502961,0.582219 0.839233,1.202359 1.030765,1.900898 0.09242,0.337071 0.119777,0.546498 0.128699,0.985289 0.01,0.492069 -0.018,0.795501 -0.105516,1.143131 -0.202505,0.804413 -0.56258,1.489949 -1.078318,2.052977 -0.341269,0.372562 -0.71384,0.699484 -1.002419,0.879599 -0.627462,0.391627 -1.335274,0.650697 -1.947884,0.712957 -0.310938,0.0316 -0.80018,0.04778 -0.955699,0.0316 z"
     id="path32" />
  <path
     style="fill:#ef7700;fill-opacity:1;stroke:#e77308;stroke-width:0.0334066;stroke-linecap:round;stroke-linejoin:round;stroke-opacity:1;paint-order:stroke fill markers"
     d="m 32.544401,49.315174 c 0.200193,-0.274387 0.617559,-0.711356 0.929498,-0.973155 0.466474,-0.391494 1.091313,-0.679748 1.743333,-0.804243 0.435177,-0.08309 0.978738,-0.08322 1.439793,-3.46e-4 1.017102,0.182827 2.129618,0.794038 3.018413,1.6583 l 0.185326,0.180211 -0.821926,0.0055 -0.821926,0.0055 -0.121534,-0.07936 c -0.571354,-0.373081 -1.117387,-0.6061 -1.637261,-0.698701 -0.283145,-0.05043 -0.678152,-0.05775 -0.942574,-0.01746 -0.412982,0.06293 -0.821806,0.221054 -1.165621,0.450843 -0.0916,0.06122 -0.191952,0.142875 -0.348371,0.283462 l -0.06111,0.05492 -0.724219,0.0031 -0.72422,0.0031 z"
     id="path33" />
  <path
     style="fill:#ef7700;fill-opacity:1;stroke:#e77308;stroke-width:0.0668132;stroke-linecap:round;stroke-linejoin:round;stroke-opacity:1;paint-order:stroke fill markers"
     d="m 72.29062,57.086238 c -0.696343,-0.03408 -1.142853,-0.147498 -1.721931,-0.437395 -0.413039,-0.206774 -0.719332,-0.434135 -1.052631,-0.781367 -0.503814,-0.524874 -0.846151,-1.164072 -1.038499,-1.939038 -0.115456,-0.465171 -0.145356,-0.708556 -0.158246,-1.288113 -0.01616,-0.726436 0.02503,-1.140095 0.173206,-1.739685 0.385788,-1.561064 1.446615,-2.65638 2.997142,-3.094582 0.541005,-0.152897 1.221738,-0.212043 1.784881,-0.155082 1.669069,0.168824 3.159681,1.045887 3.739098,2.200052 0.328565,0.654484 0.509164,1.643873 0.448791,2.458654 -0.13564,1.83057 -0.860064,3.221136 -2.111365,4.052863 -0.42015,0.27927 -1.034345,0.536553 -1.518116,0.63593 -0.388376,0.07978 -0.99736,0.114434 -1.54233,0.08776 z m 0.814765,-1.082278 c 0.389706,-0.02794 0.574015,-0.06216 0.872261,-0.161958 1.447069,-0.484219 2.312568,-1.808509 2.413507,-3.692877 0.03274,-0.611281 -0.117808,-1.390668 -0.356304,-1.844525 -0.413421,-0.786743 -1.544117,-1.42561 -2.781354,-1.571526 -0.313072,-0.03692 -0.936865,-0.01384 -1.209857,0.04478 -1.200765,0.257811 -2.030993,0.963421 -2.40558,2.0445 -0.173097,0.49957 -0.245179,0.97515 -0.246308,1.625085 -0.0011,0.627961 0.05877,1.047953 0.216607,1.519701 0.316352,0.945542 0.971664,1.60839 1.881394,1.903029 0.422364,0.136794 0.956626,0.181037 1.615634,0.133794 z"
     id="path34" />
</svg>
