<?xml version="1.0" encoding="UTF-8" standalone="no"?>
<svg
   version="1.0"
   width="200.000000pt"
   height="200.000000pt"
   viewBox="0 0 200.000000 200.000000"
   preserveAspectRatio="xMidYMid meet"
   id="svg1"
   sodipodi:docname="vocabug_logow.svg"
   inkscape:version="1.4 (86a8ad7, 2024-10-11)"
   xmlns:inkscape="http://www.inkscape.org/namespaces/inkscape"
   xmlns:sodipodi="http://sodipodi.sourceforge.net/DTD/sodipodi-0.dtd"
   xmlns="http://www.w3.org/2000/svg"
   xmlns:svg="http://www.w3.org/2000/svg">
  <defs
     id="defs1" />
  <sodipodi:namedview
     id="namedview1"
     pagecolor="#ffffff"
     bordercolor="#000000"
     borderopacity="0.25"
     inkscape:showpageshadow="2"
     inkscape:pageopacity="0.0"
     inkscape:pagecheckerboard="0"
     inkscape:deskcolor="#d1d1d1"
     inkscape:document-units="pt"
     inkscape:zoom="1.4142136"
     inkscape:cx="28.991378"
     inkscape:cy="99.348502"
     inkscape:window-width="1920"
     inkscape:window-height="1084"
     inkscape:window-x="-5"
     inkscape:window-y="-5"
     inkscape:window-maximized="1"
     inkscape:current-layer="svg1" />
  <g
     transform="translate(0.000000,200.000000) scale(0.100000,-0.100000)"
     fill="#000000"
     stroke="none"
     id="g1"
     style="stroke:#ff7c24;stroke-width:20.00000003;stroke-dasharray:none;stroke-opacity:1">
    <path
       d="m 363,1975 c -72,-31 -98,-144 -47,-204 74,-88 214,-47 214,62 v 41 l 46,-44 c 57,-56 118,-176 138,-272 33,-162 30,-185 -14,-100 -59,112 -154,172 -272,172 -132,0 -227,-90 -228,-213 0,-57 8,-76 208,-497 293,-617 329,-688 385,-748 66,-70 113,-91 198,-92 50,0 77,6 117,26 104,51 106,55 454,784 221,461 221,463 222,531 2,205 -280,285 -436,123 -21,-21 -50,-62 -65,-91 -16,-29 -31,-53 -35,-53 -19,0 35,228 73,305 29,60 130.2726,184.0288 132.8686,166.217 C 1454.5654,1866.436 1457,1857 1454,1841 c -12,-56 52,-121 118,-121 68,0 133,74 124,143 -17,145 -192,171 -328,49 -126,-114 -192,-291 -205,-547 -3,-70 -11,-131 -19,-147 -34,-66 -132,-188 -152,-188 -16,0 -98,96 -136,158 -33,56 -34,60 -39,197 -6,161 -33,271 -95,388 -87,167 -241,253 -359,202 z m 79,-92 c 15.62406,-16.0827 18.8203,-41.409 -2,-58 -36.24586,-24.1489 -83,13 -54,53 18,26 43.78496,19.6241 56,5 z m 1152,1 c 24,-23 20,-53 -9,-66 -30,-13 -55,3 -55,36 0,42 46.0834,48.7427 64,30 z M 518,1514 c 29,-14 52,-29 52,-34 0,-4 -18,-10 -41,-14 -56,-9 -127,-47 -171,-91 l -37,-38 -11,27 c -26,68 0,134 64,162 47,20 87,17 144,-12 z m 1118,0 c 28,-19 54,-63 54,-93 0,-16 -16,-64 -27,-80 -1,-2 -14,11 -29,28 -36,43 -99,78 -168,94 -56,12 -57,13 -37,31 51,46 152,56 207,20 z M 656,1349 c 18,-36 18,-39 -4,-39 -48,0 -117,-36 -176,-90 l -62,-58 -22,39 c -21,35 -21,41 -8,67 34,66 98,108 186,121 50,8 64,1 86,-40 z m 834,19 c 51,-22 86,-51 106,-90 19,-36 18,-47 -6,-86 l -21,-34 -38,44 c -45,51 -120,94 -179,104 -23,4 -42,8 -42,10 0,3 12,22 26,43 24,37 27,39 67,34 23,-3 62,-14 87,-25 z M 738,1203 c 11,-16 29,-47 40,-69 12,-23 63,-85 114,-139 76,-79 97,-96 113,-91 33,12 175,178 217,255 41,74 46,77 107,65 41,-9 39,-18 -8,-32 -54,-17 -88,-46 -111,-97 -25,-55 -25,-86 0,-134 35,-70 112,-109 185,-95 19,3 35,4 35,1 0,-2 -35,-78 -78,-168 -43,-90 -102,-216 -131,-279 -95,-210 -187,-278 -299,-221 -45,23 -62,41 -98,106 -36,65 -264,546 -264,557 0,5 15,6 34,2 64,-11 149,34 181,97 19,36 19,102 1,138 -21,39 -79,88 -115,96 -52,11 -34,31 31,34 19,1 33,-7 46,-26 z m -29,-99 c 74,-62 -3,-170 -88,-124 -30,16 -46,65 -32,99 23,53 74,64 120,25 z m 674,-1 c 24,-23 22,-81 -5,-110 -27,-29 -80,-31 -108,-3 -22,22 -26,70 -9,101 21,40 83,46 122,12 z"
       id="path1"
       sodipodi:nodetypes="ccsccccscccccccccscscsccccsccccccccccsccscccccccsccccccsccccccccccccscccccccccccccssccsscccccccccccsscc"
       style="stroke:#ff7c24;stroke-width:20.00000003;stroke-dasharray:none;stroke-opacity:1" />
  </g>
  <path
     style="fill:#ffffff;fill-opacity:1;stroke:#ff0000;stroke-width:2.66666667;stroke-dasharray:none;stroke-opacity:1;paint-order:stroke fill markers"
     d="m 87.462258,137.41566 c -1.330479,-0.15927 -2.387714,-0.43474 -3.512792,-0.91529 -1.359566,-0.58071 -2.232518,-1.17118 -3.08535,-2.08695 -2.611969,-2.80474 -3.672226,-7.57587 -2.471233,-11.12049 0.23653,-0.69809 1.000758,-2.15295 1.515367,-2.88481 0.538123,-0.76529 1.840728,-2.0819 2.51316,-2.54018 1.834195,-1.25005 3.959897,-1.70904 6.167295,-1.33166 1.960468,0.33515 4.103173,1.42046 5.987991,3.03297 1.989312,1.70192 3.226738,3.69185 3.714438,5.97329 0.203642,0.95262 0.204178,2.6757 0.0011,3.62519 -0.287185,1.34291 -0.806186,2.57768 -1.567159,3.72848 -0.577553,0.87342 -1.910033,2.21238 -2.768923,2.78241 -1.199856,0.79631 -2.62719,1.38506 -3.904147,1.61038 -0.584517,0.10314 -2.147629,0.17958 -2.589774,0.12666 z"
     id="path56"
     transform="scale(0.75)" />
  <path
     style="fill:#ffffff;fill-opacity:1;stroke:#ff0000;stroke-width:2.66666667;stroke-dasharray:none;stroke-opacity:1;paint-order:stroke fill markers"
     d="m 173.43803,136.84903 c -4.17067,-1.12321 -6.53956,-4.61687 -6.53956,-9.6446 0,-5.52896 2.6108,-9.14722 7.36322,-10.20453 4.30116,-0.95692 9.66655,1.16344 11.2779,4.45693 0.71604,1.46354 1.07084,3.45046 0.94519,5.29329 -0.36054,5.28782 -3.07715,8.95929 -7.46658,10.09101 -1.40384,0.36195 -4.25056,0.36599 -5.58017,0.008 z"
     id="path57"
     transform="scale(0.75)" />
  <path
     style="fill:#ff7c24;fill-opacity:1;stroke:#ff0000;stroke-width:2.66666667;stroke-dasharray:none;stroke-opacity:1;paint-order:stroke fill markers"
     d="m 128.0243,241.92264 c -2.33708,-0.61218 -6.20206,-2.41104 -8.46788,-3.94115 -3.39992,-2.29598 -6.08491,-5.72727 -9.73559,-12.44164 -4.06652,-7.47919 -25.699127,-52.78004 -32.874306,-68.8421 -1.431158,-3.20374 -2.079416,-4.94081 -1.90848,-5.11399 0.146496,-0.14841 1.02087,-0.21027 2.01432,-0.14249 0.965501,0.0659 3.34866,0.11385 5.295908,0.10663 3.138967,-0.0116 3.793238,-0.0957 5.769625,-0.7411 4.820166,-1.57411 8.425064,-3.8353 11.818956,-7.4135 3.376887,-3.56028 4.735367,-6.53201 5.284897,-11.56097 0.35728,-3.26959 -0.0316,-7.38585 -0.94763,-10.03032 -1.99152,-5.74936 -10.307801,-13.10597 -16.70756,-14.77957 -1.948865,-0.50964 -3.471678,-1.32813 -3.319638,-1.78425 0.191088,-0.57326 1.38052,-1.2396 2.914161,-1.63256 2.208857,-0.56597 5.855276,-0.78943 7.148734,-0.43809 2.223322,0.60391 4.122731,2.93689 7.711053,9.47126 2.4951,4.54358 3.0133,5.31823 6.31843,9.44512 4.36601,5.45157 9.07174,10.66721 14.78973,16.39236 6.89375,6.90239 9.11317,8.45421 11.0423,7.72076 3.02595,-1.15046 13.54301,-12.51962 22.18822,-23.98591 2.73594,-3.62873 5.2615,-7.47211 7.77519,-11.83225 3.84087,-6.66221 4.98327,-7.62171 8.78213,-7.37609 2.72832,0.1764 6.80907,1.13816 7.57766,1.78592 l 0.59299,0.49977 -0.65564,0.52205 c -0.3606,0.28714 -1.59976,0.83253 -2.75368,1.21199 -8.64465,2.84273 -12.73232,6.06601 -15.97706,12.59851 -2.59935,5.23316 -3.46572,9.45921 -2.68858,13.11452 1.14686,5.39428 5.06355,11.2928 9.74895,14.68187 4.74514,3.43229 11.03792,4.86769 17.25124,3.93506 3.24125,-0.48651 4.38485,-0.53108 4.38485,-0.17092 0,0.37226 -3.73934,8.43723 -11.79883,25.44762 -3.92961,8.29383 -9.55844,20.27236 -12.50852,26.61894 -2.95008,6.34659 -6.23671,13.22094 -7.30363,15.27632 -4.70322,9.06067 -10.00226,16.14328 -14.80735,19.79128 -2.05408,1.55945 -5.33188,3.20329 -7.46474,3.74363 -2.17712,0.55156 -6.10412,0.48833 -8.49023,-0.13671 z"
     id="path58"
     transform="scale(0.75)" />
  <path
     style="fill:#ff7c24;fill-opacity:1;stroke:#ff0000;stroke-width:2.66666667;stroke-dasharray:none;stroke-opacity:1;paint-order:stroke fill markers"
     d="m 206.44683,108.90125 c -5.30951,-6.14796 -9.3434,-9.444466 -15.4408,-12.61829 -3.99974,-2.081945 -7.02203,-3.137438 -11.30547,-3.948278 -3.41384,-0.646228 -4.82805,-1.011697 -4.82805,-1.247692 0,-0.637744 5.29874,-8.598074 6.23934,-9.373393 0.97563,-0.804198 2.0006,-1.02842 4.00831,-0.876858 4.82161,0.363983 11.58775,2.398505 16.43142,4.940791 3.85098,2.021253 7.1587,4.738896 9.34524,7.678117 0.60393,0.811825 1.6066,2.511133 2.22815,3.77624 1.0481,2.133296 1.13587,2.410257 1.20971,3.817073 0.0699,1.33167 0.0171,1.67439 -0.43238,2.80698 -0.60392,1.52174 -4.44631,8.05038 -4.74158,8.05646 -0.0613,10e-4 -1.28253,-1.35375 -2.71389,-3.01115 z"
     id="path59"
     transform="scale(0.75)" />
  <path
     style="fill:#ff7c24;fill-opacity:1;stroke:#ff0000;stroke-width:2.66666667;stroke-dasharray:none;stroke-opacity:1;paint-order:stroke fill markers"
     d="m 220.10083,86.369958 c -0.65627,-0.688456 -1.81739,-1.950652 -2.58027,-2.804879 -5.18675,-5.807854 -13.2219,-10.058951 -23.34584,-12.351405 -5.59296,-1.266464 -5.86726,-1.500224 -3.89881,-3.322661 2.76878,-2.563399 6.48085,-4.37367 10.89257,-5.311991 2.28684,-0.486386 6.76091,-0.677341 8.96711,-0.382721 4.56973,0.610249 8.24771,2.360985 10.48357,4.990217 3.47038,4.080972 5.0638,8.264487 4.39245,11.532374 -0.65856,3.205592 -2.87092,8.902805 -3.45717,8.902805 -0.14322,0 -0.79734,-0.563282 -1.45361,-1.251739 z"
     id="path60"
     transform="scale(0.75)" />
  <path
     style="fill:#ff7c24;fill-opacity:1;stroke:#ff0000;stroke-width:2.66666667;stroke-dasharray:none;stroke-opacity:1;paint-order:stroke fill markers"
     d="m 55.015385,111.29917 c -0.0475,-0.12378 -1.032808,-1.89246 -2.18958,-3.93039 -2.397009,-4.22293 -2.796619,-5.179 -2.704251,-6.46997 0.158786,-2.219236 3.004026,-6.928797 6.051375,-10.016488 2.468569,-2.501249 4.747863,-4.120911 8.145268,-5.788012 3.356106,-1.646837 6.697593,-2.703811 10.727223,-3.393219 6.919424,-1.183808 8.926257,-0.544716 11.502671,3.663121 0.769856,1.257341 2.187395,4.177667 2.43424,5.01487 0.380313,1.289882 0.159,1.425398 -2.615913,1.601792 -4.6914,0.29822 -9.860388,2.351549 -15.600376,6.197097 -3.561402,2.385989 -5.142141,3.704769 -11.029999,9.202109 -2.441189,2.27927 -4.482574,4.14413 -4.536412,4.14413 -0.05384,0 -0.136748,-0.10127 -0.184246,-0.22504 z"
     id="path61"
     transform="scale(0.75)" />
  <path
     style="fill:#ff7c24;fill-opacity:1;stroke:#ff0000;stroke-width:2.66666667;stroke-dasharray:none;stroke-opacity:1;paint-order:stroke fill markers"
     d="m 41.794519,85.379777 c -2.768128,-7.280448 -1.758524,-13.637335 2.907495,-18.306786 4.413495,-4.416743 11.3125,-6.302472 17.436104,-4.765871 2.355045,0.590953 11.274122,4.87306 12.716322,6.105189 1.431065,1.222617 1.497896,1.190587 -6.540208,3.134505 -4.262325,1.030791 -10.123625,3.659646 -14.288196,6.408407 -1.462118,0.965048 -4.583737,3.631636 -6.936931,5.925751 l -4.278535,4.171119 z"
     id="path62"
     transform="scale(0.75)" />
  <path
     style="fill:#ff7c24;fill-opacity:1;stroke:#ff0000;stroke-width:2.66666667;stroke-dasharray:none;stroke-opacity:1;paint-order:stroke fill markers"
     d="m 207.04887,24.47109 c -1.06163,-0.404835 -2.0726,-1.475665 -2.5245,-2.674007 -0.51003,-1.352462 -0.43348,-3.795689 0.15422,-4.921793 1.55945,-2.988108 5.93883,-3.499723 8.13851,-0.950769 1.7228,1.996357 2.14614,4.18217 1.1411,5.891817 -0.62603,1.064927 -1.41904,1.749026 -2.72146,2.347688 -1.25385,0.576339 -3.12243,0.713347 -4.18787,0.307064 z"
     id="path63"
     transform="scale(0.75)" />
  <path
     style="fill:#ff7c24;fill-opacity:1;stroke:#ff0000;stroke-width:2.66666667;stroke-dasharray:none;stroke-opacity:1;paint-order:stroke fill markers"
     d="m 53.661948,23.986507 c -0.963612,-0.328567 -2.333156,-1.495659 -2.795702,-2.382427 -0.590143,-1.131389 -0.531344,-3.013853 0.135749,-4.346073 0.612493,-1.22318 2.004534,-2.587761 3.04531,-2.985237 2.861957,-1.092992 6.398884,1.780554 6.398884,5.198718 0,1.822441 -0.959225,3.337278 -2.670963,4.218061 -0.870376,0.447857 -3.181412,0.614702 -4.113278,0.296958 z"
     id="path64"
     transform="scale(0.75)" />
</svg>
